<svg id="Icons" xmlns="http://www.w3.org/2000/svg" width="24" height="24" viewBox="0 0 24 24"><title>ic_status_partially_done</title>
<path d="M19.741495,5.620768c-0.213989-0.256409-0.441589-0.500671-0.67981-0.734375
	c-1.804382-1.770386-4.273559-2.865539-6.999145-2.865539c-5.52002,0-10,4.47998-10,10
	c0,2.725586,1.095154,5.194762,2.865539,6.999145c0.233704,0.23822,0.477966,0.46582,0.734375,0.67981
	c1.734863,1.447754,3.965516,2.321045,6.400086,2.321045c5.520019,0,9.999999-4.47998,9.999999-9.999999
	C22.06254,9.586284,21.189249,7.355631,19.741495,5.620768z M6.343913,17.604166
	c-1.409058-1.442871-2.281372-3.412108-2.281372-5.583312c0-4.411255,3.588745-8,8-8
	c2.171204,0,4.140441,0.872314,5.583312,2.281372L6.343913,17.604166z" fill="#239DF9"/>
</svg>
